<svg xmlns="http://www.w3.org/2000/svg" version="1.1" xmlns:xlink="http://www.w3.org/1999/xlink" xmlns:svgjs="http://svgjs.dev/svgjs" width="1000" height="1000" viewBox="0 0 1000 1000"><rect width="1000" height="1000" fill="#000000"></rect><g transform="matrix(0.7,0,0,0.7,149.5757641438675,314.4546617375119)"><svg viewBox="0 0 396 210" data-background-color="#90adbb" preserveAspectRatio="xMidYMid meet" height="530" width="1000" xmlns="http://www.w3.org/2000/svg" xmlns:xlink="http://www.w3.org/1999/xlink"><g id="tight-bounds" transform="matrix(1,0,0,1,0.2400037156735948,0.025663167446097646)"><svg viewBox="0 0 395.52 209.9486615993541" height="209.9486615993541" width="395.52"><g><svg viewBox="0 0 568.4827568953865 301.7601991112899" height="209.9486615993541" width="395.52"><g transform="matrix(1,0,0,1,170.98515689538664,93.24828154355751)"><svg viewBox="0 0 397.49759999999986 115.26363602417491" height="115.26363602417491" width="397.49759999999986"><g id="textblocktransform"><svg viewBox="0 0 397.49759999999986 115.26363602417491" height="115.26363602417491" width="397.49759999999986" id="textblock"><g><rect width="397.49759999999986" height="6.718443238503805" x="0" y="82.41391250869324" fill="#ffffff" opacity="1" stroke-width="0" stroke="transparent" fill-opacity="1" class="rect-o-0" data-fill-palette-color="primary" rx="1%" id="o-0" data-palette-color="#f6f6f6"></rect></g><g transform="matrix(1,0,0,1,0.9887999999999693,0)"><svg viewBox="0 0 395.5199999999999 74.49951602354479" height="74.49951602354479" width="395.5199999999999"><g transform="matrix(1,0,0,1,0,0)"><svg width="395.5199999999999" viewBox="0.2750000059604645 -35.5 191.10501098632812 36" height="74.49951602354479" data-palette-color="#f6f6f6"><path d="M22.55 0.4L22.55 0.4Q21.65 0.4 21.15-0.38 20.65-1.15 20.35-2.45L20.35-2.45 17.8-13.7Q17.6-14.9 17.32-16.75 17.05-18.6 16.8-20.6 16.55-22.6 16.35-24.35 16.15-26.1 16.03-27.2 15.9-28.3 15.9-28.3L15.9-28.3 14.7-32.15Q14.55-32.8 14.75-33.05 14.95-33.3 15.55-33.3L15.55-33.3 18.25-33.3 21.75-15.65Q22.2-13.4 22.48-11.45 22.75-9.5 22.93-7.78 23.1-6.05 23.25-4.45L23.25-4.45 23.55-4.45Q23.7-6.8 24.03-9.8 24.35-12.8 24.8-15.65L24.8-15.65 28-33.8Q28.1-34.4 28.3-34.7 28.5-35 29.05-35L29.05-35 32.5-35 25.95 0.15Q25.25 0.2 24.78 0.28 24.3 0.35 23.83 0.38 23.35 0.4 22.55 0.4ZM8.35 0.35L8.35 0.35Q7.6 0.35 7.08-0.53 6.55-1.4 6.3-2.75L6.3-2.75Q5.9-4.85 5.28-7.9 4.65-10.95 3.98-14.45 3.3-17.95 2.68-21.38 2.05-24.8 1.5-27.63 0.95-30.45 0.65-32.13 0.35-33.8 0.35-33.8L0.35-33.8Q0.2-34.45 0.35-34.73 0.5-35 1.2-35L1.2-35 4.55-35 8.15-15.65Q8.55-13.4 8.83-11.43 9.1-9.45 9.3-7.73 9.5-6 9.65-4.4L9.65-4.4 9.95-4.4Q10.1-7.4 10.43-10.18 10.75-12.95 11.25-15.65L11.25-15.65 14.3-32.1Q14.4-32.75 14.58-33.02 14.75-33.3 15.35-33.3L15.35-33.3 17.1-33.3Q17.9-33.3 17.98-33 18.05-32.7 17.95-32.15L17.95-32.15 16.6-28.25Q16.6-28.25 16.48-27.15 16.35-26.05 16.15-24.33 15.95-22.6 15.73-20.63 15.5-18.65 15.25-16.8 15-14.95 14.8-13.75L14.8-13.75 12.05 0.15Q11.15 0.25 10.38 0.3 9.6 0.35 8.35 0.35ZM33.2 0.1L33.2 0.1Q32.8 0.1 32.1 0.05 31.4 0 30.65-0.05L30.65-0.05 39.55-34.45Q39.7-35.15 41.1-35.15L41.1-35.15Q41.6-35.15 42.12-35.1 42.65-35.05 43-35L43-35 51.95-0.75Q52.05-0.35 51.72-0.13 51.4 0.1 50.2 0.1L50.2 0.1Q49.75 0.1 49.17 0.08 48.6 0.05 47.8 0L47.8 0 43.1-19.7Q42.7-21.4 42.35-23.15 42-24.9 41.72-26.53 41.45-28.15 41.35-29.35L41.35-29.35Q41.25-28.15 40.97-26.53 40.7-24.9 40.35-23.15 40-21.4 39.55-19.7L39.55-19.7 35.1-0.7Q35-0.3 34.7-0.1 34.4 0.1 33.2 0.1ZM47.75-8.9L35.8-8.9 35.8-12.6 47.75-12.6 47.75-8.9ZM56.8 0L56.8 0 56.8-34.4Q56.8-34.4 56.9-34.48 57-34.55 57.6-34.55L57.6-34.55 60-34.55Q60.65-34.55 60.75-34.48 60.85-34.4 60.85-34.4L60.85-34.4 60.85-0.8Q60.85-0.4 60.67-0.25 60.5-0.1 59.65-0.05 58.8 0 56.8 0ZM67-31.2L50-31.2 50-34.2Q50-35 50.85-35L50.85-35 67.84-35 67.84-32Q67.84-31.55 67.65-31.38 67.45-31.2 67-31.2L67-31.2ZM76.39 0.5L76.39 0.5Q74.94 0.5 73.69 0.15 72.44-0.2 71.42-1.15 70.39-2.1 69.64-3.93 68.89-5.75 68.49-8.72 68.09-11.7 68.09-16.05L68.09-16.05Q68.09-21.2 68.67-24.68 69.24-28.15 70.24-30.28 71.24-32.4 72.52-33.55 73.79-34.7 75.19-35.1 76.59-35.5 77.94-35.5L77.94-35.5Q79.79-35.5 80.82-35.08 81.84-34.65 82.24-34.02 82.64-33.4 82.64-32.75L82.64-32.75Q82.64-32.05 82.44-31.4 82.24-30.75 81.99-30.3L81.99-30.3Q81.74-30.5 81.27-30.78 80.79-31.05 80.14-31.28 79.49-31.5 78.74-31.5L78.74-31.5Q77.79-31.5 76.87-31.18 75.94-30.85 75.12-29.93 74.29-29 73.69-27.3 73.09-25.6 72.72-22.9 72.34-20.2 72.34-16.25L72.34-16.25Q72.34-12.45 72.72-10.05 73.09-7.65 73.74-6.33 74.39-5 75.32-4.5 76.24-4 77.34-4L77.34-4Q78.79-4 80.04-4.5 81.29-5 81.94-5.55L81.94-5.55Q82.19-5.05 82.39-4.4 82.59-3.75 82.59-3.1L82.59-3.1Q82.59-2.15 81.82-1.33 81.04-0.5 79.64 0 78.24 0.5 76.39 0.5ZM97.84 0L97.84 0 97.84-34.2Q97.84-34.6 98.02-34.75 98.19-34.9 99.02-34.95 99.84-35 101.89-35L101.89-35 101.89-0.8Q101.89-0.4 101.74-0.25 101.59-0.1 100.74-0.05 99.89 0 97.84 0ZM85.84 0L85.84 0 85.84-34.2Q85.84-34.6 85.99-34.75 86.14-34.9 86.99-34.95 87.84-35 89.89-35L89.89-35 89.89-0.8Q89.89-0.4 89.74-0.25 89.59-0.1 88.74-0.05 87.89 0 85.84 0ZM99.69-16.95L87.84-16.95 87.84-20.75 99.69-20.75 99.69-16.95ZM111.94 0.5L111.94 0.5Q108.49 0.5 106.91-0.48 105.34-1.45 105.34-2.5L105.34-2.5Q105.34-3.1 105.59-3.93 105.84-4.75 106.39-5.4L106.39-5.4Q107.19-4.65 108.46-4.15 109.74-3.65 111.54-3.65L111.54-3.65Q114.19-3.65 115.31-5.05 116.44-6.45 116.44-8.75L116.44-8.75Q116.44-10.45 115.81-11.9 115.19-13.35 113.54-15.25L113.54-15.25 108.54-21.1Q106.84-23.2 106.11-24.88 105.39-26.55 105.39-28.35L105.39-28.35Q105.39-31.5 107.61-33.5 109.84-35.5 113.99-35.5L113.99-35.5Q117.54-35.5 119.04-34.77 120.54-34.05 120.54-33L120.54-33Q120.54-32.5 120.29-31.88 120.04-31.25 119.54-30.7L119.54-30.7Q119.04-31.05 117.71-31.48 116.39-31.9 114.64-31.9L114.64-31.9Q112.39-31.9 111.06-31 109.74-30.1 109.74-28.45L109.74-28.45Q109.74-27.1 110.36-25.98 110.99-24.85 112.09-23.5L112.09-23.5 117.49-17.35Q119.44-15.05 120.14-13.15 120.84-11.25 120.84-8.9L120.84-8.9Q120.84-6.4 120.01-4.25 119.19-2.1 117.26-0.8 115.34 0.5 111.94 0.5ZM144.54 0.4L144.54 0.4Q143.64 0.4 143.14-0.38 142.64-1.15 142.34-2.45L142.34-2.45 139.79-13.7Q139.59-14.9 139.31-16.75 139.04-18.6 138.79-20.6 138.54-22.6 138.34-24.35 138.14-26.1 138.01-27.2 137.89-28.3 137.89-28.3L137.89-28.3 136.69-32.15Q136.54-32.8 136.74-33.05 136.94-33.3 137.54-33.3L137.54-33.3 140.24-33.3 143.74-15.65Q144.19-13.4 144.46-11.45 144.74-9.5 144.91-7.78 145.09-6.05 145.24-4.45L145.24-4.45 145.54-4.45Q145.69-6.8 146.01-9.8 146.34-12.8 146.79-15.65L146.79-15.65 149.99-33.8Q150.09-34.4 150.29-34.7 150.49-35 151.04-35L151.04-35 154.49-35 147.94 0.15Q147.24 0.2 146.76 0.28 146.29 0.35 145.81 0.38 145.34 0.4 144.54 0.4ZM130.34 0.35L130.34 0.35Q129.59 0.35 129.06-0.53 128.54-1.4 128.29-2.75L128.29-2.75Q127.89-4.85 127.26-7.9 126.64-10.95 125.96-14.45 125.29-17.95 124.66-21.38 124.04-24.8 123.49-27.63 122.94-30.45 122.64-32.13 122.34-33.8 122.34-33.8L122.34-33.8Q122.19-34.45 122.34-34.73 122.49-35 123.19-35L123.19-35 126.54-35 130.14-15.65Q130.54-13.4 130.81-11.43 131.09-9.45 131.29-7.73 131.49-6 131.64-4.4L131.64-4.4 131.94-4.4Q132.09-7.4 132.41-10.18 132.74-12.95 133.24-15.65L133.24-15.65 136.29-32.1Q136.39-32.75 136.56-33.02 136.74-33.3 137.34-33.3L137.34-33.3 139.09-33.3Q139.89-33.3 139.96-33 140.04-32.7 139.94-32.15L139.94-32.15 138.59-28.25Q138.59-28.25 138.46-27.15 138.34-26.05 138.14-24.33 137.94-22.6 137.71-20.63 137.49-18.65 137.24-16.8 136.99-14.95 136.79-13.75L136.79-13.75 134.04 0.15Q133.14 0.25 132.36 0.3 131.59 0.35 130.34 0.35ZM155.18 0.1L155.18 0.1Q154.78 0.1 154.08 0.05 153.38 0 152.63-0.05L152.63-0.05 161.53-34.45Q161.68-35.15 163.08-35.15L163.08-35.15Q163.58-35.15 164.11-35.1 164.63-35.05 164.98-35L164.98-35 173.93-0.75Q174.03-0.35 173.71-0.13 173.38 0.1 172.18 0.1L172.18 0.1Q171.73 0.1 171.16 0.08 170.58 0.05 169.78 0L169.78 0 165.08-19.7Q164.68-21.4 164.33-23.15 163.98-24.9 163.71-26.53 163.43-28.15 163.33-29.35L163.33-29.35Q163.23-28.15 162.96-26.53 162.68-24.9 162.33-23.15 161.98-21.4 161.53-19.7L161.53-19.7 157.08-0.7Q156.98-0.3 156.68-0.1 156.38 0.1 155.18 0.1ZM169.73-8.9L157.78-8.9 157.78-12.6 169.73-12.6 169.73-8.9ZM182.23-14.2L177.78-14.2Q177.03-14.2 176.98-14.45 176.93-14.7 176.93-15.3L176.93-15.3 176.93-34.05Q176.93-34.2 176.95-34.6 176.98-35 177.53-35L177.53-35 182.18-35Q185.33-35 187.38-33.98 189.43-32.95 190.41-30.78 191.38-28.6 191.38-25.1L191.38-25.1Q191.38-22 190.66-19.93 189.93-17.85 188.66-16.6 187.38-15.35 185.73-14.78 184.08-14.2 182.23-14.2L182.23-14.2ZM176.38 0L176.38 0 176.38-34.2Q176.38-34.6 176.55-34.8 176.73-35 177.23-35L177.23-35 179.63-35Q180.23-35 180.33-34.6 180.43-34.2 180.43-34.2L180.43-34.2 180.43-0.8Q180.43-0.4 180.25-0.25 180.08-0.1 179.25-0.05 178.43 0 176.38 0ZM180.33-31.45L180.33-17.95 182.63-17.95Q184.03-17.95 184.95-18.7 185.88-19.45 186.38-21.13 186.88-22.8 186.88-25.6L186.88-25.6Q186.88-27.35 186.53-28.68 186.18-30 185.3-30.73 184.43-31.45 182.93-31.45L182.93-31.45 180.33-31.45Z" opacity="1" transform="matrix(1,0,0,1,0,0)" fill="#ffffff" class="wordmark-text-0" data-fill-palette-color="primary" id="text-0"></path></svg></g></svg></g><g transform="matrix(1,0,0,1,76.53311999999995,97.04675223234551)"><svg viewBox="0 0 244.43135999999996 18.216883791829407" height="18.216883791829407" width="244.43135999999996"><g transform="matrix(1,0,0,1,0,0)"><svg width="244.43135999999996" viewBox="0.6000000238418579 -34.79999923706055 473.6099853515625 35.29999923706055" height="18.216883791829407" data-palette-color="#ffffff"><path d="M5.45-34.3L18.35-34.3 17.7-29.85 13.7-29.85 10.15-4.45 14.15-4.45 13.5 0 0.6 0 1.25-4.45 5.25-4.45 8.8-29.85 4.8-29.85 5.45-34.3ZM22.25-34.3L48.6-34.3 47.95-29.85 37.2-29.85 33 0 28.1 0 32.3-29.85 21.6-29.85 22.25-34.3ZM57.05-34.3L56-26.95Q55.8-26.25 55.55-25.48 55.3-24.7 55-23.85L55-23.85Q54.4-21.75 53.9-20.35L53.9-20.35 51.9-20.35 51.9-26.95 52.95-34.3 57.05-34.3ZM75.99-34.8Q80.89-34.8 83.87-32.83 86.84-30.85 86.84-26.8L86.84-26.8Q86.84-25.75 86.64-24.6L86.64-24.6 81.74-24.6Q81.94-25.6 81.94-26L81.94-26Q81.94-28.1 80.19-29.23 78.44-30.35 75.49-30.35L75.49-30.35Q71.89-30.35 69.59-29.05 67.29-27.75 67.29-25.2L67.29-25.2Q67.29-23.7 68.29-22.73 69.29-21.75 70.79-21.2 72.29-20.65 74.89-19.95L74.89-19.95Q78.34-19.05 80.47-18.15 82.59-17.25 84.12-15.43 85.64-13.6 85.64-10.55L85.64-10.55Q85.64-4.75 81.72-2.13 77.79 0.5 70.99 0.5L70.99 0.5Q65.69 0.5 62.47-1.55 59.24-3.6 59.24-8L59.24-8Q59.24-8.7 59.34-9.5 59.44-10.3 59.59-10.75L59.59-10.75 64.49-10.75Q64.34-10.6 64.27-9.9 64.19-9.2 64.19-8.75L64.19-8.75Q64.19-6.35 66.12-5.15 68.04-3.95 71.34-3.95L71.34-3.95Q75.64-3.95 78.12-5.53 80.59-7.1 80.59-10.05L80.59-10.05Q80.59-11.65 79.59-12.65 78.59-13.65 77.12-14.2 75.64-14.75 72.94-15.5L72.94-15.5Q69.54-16.4 67.42-17.3 65.29-18.2 63.79-20.05 62.29-21.9 62.29-24.95L62.29-24.95Q62.29-29.8 66.09-32.3 69.89-34.8 75.99-34.8L75.99-34.8ZM105.09-34.3L131.44-34.3 130.79-29.85 120.04-29.85 115.84 0 110.94 0 115.14-29.85 104.44-29.85 105.09-34.3ZM135.29-34.3L148.19-34.3 147.54-29.85 143.54-29.85 139.99-4.45 143.99-4.45 143.34 0 130.44 0 131.09-4.45 135.09-4.45 138.64-29.85 134.64-29.85 135.29-34.3ZM185.53-34.3L193.18-34.3 188.33 0 183.43 0 187.48-28.55 187.18-28.55 171.28 0 167.13 0 159.38-28.55 159.13-28.55 155.08 0 150.63 0 155.48-34.3 163.18-34.3 170.43-7.3 170.63-7.3 185.53-34.3ZM202.38-34.3L224.88-34.3 223.58-29.85 206.63-29.85 205.23-19.75 220.58-19.75 219.93-15.3 204.58-15.3 203.08-4.45 220.33-4.45 220.33 0 197.53 0 202.38-34.3ZM240.78-34.3L267.13-34.3 266.48-29.85 255.73-29.85 251.53 0 246.63 0 250.83-29.85 240.13-29.85 240.78-34.3ZM285.62-34.8Q291.12-34.8 294.5-31.65 297.87-28.5 297.87-22.5L297.87-22.5Q297.87-20.85 297.02-14.9L297.02-14.9Q295.97-7.3 291.62-3.4 287.27 0.5 280.67 0.5L280.67 0.5Q275.17 0.5 271.77-2.65 268.37-5.8 268.37-11.75L268.37-11.75Q268.32-12.45 268.42-13.3 268.52-14.15 268.72-15.5L268.72-15.5 269.27-19.4Q270.27-26.95 274.67-30.88 279.07-34.8 285.62-34.8L285.62-34.8ZM285.02-30.35Q280.67-30.35 277.82-27.68 274.97-25 274.17-19.4L274.17-19.4Q273.32-13.15 273.32-12.2L273.32-12.2Q273.32-8 275.42-5.98 277.52-3.95 281.27-3.95L281.27-3.95Q285.52-3.95 288.4-6.63 291.27-9.3 292.12-14.9L292.12-14.9Q292.97-20.65 292.97-22.1L292.97-22.1Q292.97-26.3 290.85-28.33 288.72-30.35 285.02-30.35L285.02-30.35ZM330.77-34.8Q335.67-34.8 338.64-32.83 341.62-30.85 341.62-26.8L341.62-26.8Q341.62-25.75 341.42-24.6L341.42-24.6 336.52-24.6Q336.72-25.6 336.72-26L336.72-26Q336.72-28.1 334.97-29.23 333.22-30.35 330.27-30.35L330.27-30.35Q326.67-30.35 324.37-29.05 322.07-27.75 322.07-25.2L322.07-25.2Q322.07-23.7 323.07-22.73 324.07-21.75 325.57-21.2 327.07-20.65 329.67-19.95L329.67-19.95Q333.12-19.05 335.24-18.15 337.37-17.25 338.89-15.43 340.42-13.6 340.42-10.55L340.42-10.55Q340.42-4.75 336.49-2.13 332.57 0.5 325.77 0.5L325.77 0.5Q320.47 0.5 317.24-1.55 314.02-3.6 314.02-8L314.02-8Q314.02-8.7 314.12-9.5 314.22-10.3 314.37-10.75L314.37-10.75 319.27-10.75Q319.12-10.6 319.04-9.9 318.97-9.2 318.97-8.75L318.97-8.75Q318.97-6.35 320.89-5.15 322.82-3.95 326.12-3.95L326.12-3.95Q330.42-3.95 332.89-5.53 335.37-7.1 335.37-10.05L335.37-10.05Q335.37-11.65 334.37-12.65 333.37-13.65 331.89-14.2 330.42-14.75 327.72-15.5L327.72-15.5Q324.32-16.4 322.19-17.3 320.07-18.2 318.57-20.05 317.07-21.9 317.07-24.95L317.07-24.95Q317.07-29.8 320.87-32.3 324.67-34.8 330.77-34.8L330.77-34.8ZM371.62-34.3L376.52-34.3 371.67 0 366.77 0 368.92-15.3 353.27-15.3 351.12 0 346.22 0 351.06-34.3 355.97-34.3 353.92-19.75 369.56-19.75 371.62-34.3ZM394.71-34.3L400.11-34.3 408.66 0 403.36 0 401.51-7.45 385.11-7.45 381.21 0 376.51 0 394.71-34.3ZM400.46-11.9L396.46-28.4 396.16-28.4 387.51-11.9 400.46-11.9ZM432.76-34.3Q436.81-34.3 439.44-32.48 442.06-30.65 442.06-27.15L442.06-27.15Q442.06-25.05 441.19-23.03 440.31-21 438.63-19.55 436.96-18.1 434.66-17.7L434.66-17.7 434.66-17.45Q436.16-16.8 437.56-15.15 438.96-13.5 438.96-10.1L438.96-10.1Q438.96-9.25 438.76-7.35L438.76-7.35Q438.56-5.75 438.56-5.2L438.56-5.2Q438.56-3.5 439.04-2.7 439.51-1.9 440.46-1.55L440.46-1.55 440.26-0.15Q439.16 0.25 437.61 0.25L437.61 0.25Q435.71 0.25 434.61-0.7 433.51-1.65 433.51-4.25L433.51-4.25Q433.51-5.1 433.71-6.9L433.71-6.9Q433.86-8.05 433.86-8.65L433.86-8.65Q433.86-12.05 432.44-13.58 431.01-15.1 429.06-15.1L429.06-15.1 420.36-15.1 418.26 0 413.36 0 418.16-34.3 432.76-34.3ZM432.21-29.85L422.46-29.85 421.01-19.55 430.76-19.55Q432.26-19.55 433.71-20.35 435.16-21.15 436.06-22.53 436.96-23.9 436.96-25.55L436.96-25.55Q436.96-27.5 435.69-28.68 434.41-29.85 432.21-29.85L432.21-29.85ZM451.71-34.3L474.21-34.3 472.91-29.85 455.96-29.85 454.56-19.75 469.91-19.75 469.26-15.3 453.91-15.3 452.41-4.45 469.66-4.45 469.66 0 446.86 0 451.71-34.3Z" opacity="1" transform="matrix(1,0,0,1,0,0)" fill="#ffffff" class="slogan-text-1" data-fill-palette-color="secondary" id="text-1"></path></svg></g></svg></g></svg></g></svg></g><g><svg viewBox="0 0 153.39760915061228 301.7601991112899" height="301.7601991112899" width="153.39760915061228"><g><svg xmlns="http://www.w3.org/2000/svg" xmlns:xlink="http://www.w3.org/1999/xlink" version="1.1" x="0" y="0" viewBox="26.202003479003906 0.5349999666213989 49.9639892578125 98.28799438476562" enable-background="new 0 0 100 100" xml:space="preserve" height="301.7601991112899" width="153.39760915061228" class="icon-icon-0" data-fill-palette-color="accent" id="icon-0"><g fill="#ffffff" data-fill-palette-color="accent"><path d="M50.439 0.535c5.818 0 9.917 3.889 10.534 10.532l0.959 14.717h-24.94l0.96-14.717c0.617-6.644 4.715-10.532 10.531-10.532H50.439L50.439 0.535zM72.35 58.893l1.24 0.707-0.111 0.92 2.687 1.535c-0.345 2.889-1.229 5.33-2.416 6.826l-1.197-0.683-0.073 0.622-1.328-0.76c-0.312 1.739-0.66 3.383-1.037 4.918h-2.301l-1.357 4.603H62.25l0.363-4.603h-13.14H36.33l0.362 4.603H32.49l-1.355-4.603h-2.303c-1.53-6.262-2.619-14.33-2.63-23.254v-0.102c0.011-8.923 1.1-16.994 2.63-23.257h2.303l1.355-4.601h4.202l-0.362 4.601h13.143 13.141l-0.363-4.601h4.203l1.356 4.601h2.301c0.373 1.525 0.722 3.157 1.031 4.884l1.334-0.763 0.074 0.62 1.197-0.683c1.186 1.498 2.072 3.938 2.416 6.829l-2.686 1.532 0.11 0.92-1.243 0.712c0.147 1.737 0.258 3.53 0.325 5.366 0.149-0.099 0.338-0.146 0.541-0.125l0.759 0.075c0.506 0.05 0.913 0.502 0.913 1.008v0.049c0.361 0.547 0.607 1.625 0.607 2.866 0 1.289-0.265 2.402-0.648 2.927-0.01 0.503-0.422 0.947-0.928 0.997l-0.752 0.075c-0.185 0.02-0.354-0.018-0.492-0.094C72.605 55.387 72.496 57.166 72.35 58.893L72.35 58.893zM49.473 32.142H32.635c-0.506 0-0.916 0.41-0.916 0.916V66.29c0 0.504 0.41 0.914 0.916 0.914h16.837 16.836c0.506 0 0.916-0.41 0.916-0.914V33.058c0-0.506-0.41-0.916-0.916-0.916H49.473L49.473 32.142zM57.289 36.946l-6.553 12.32c-0.223-0.729-1.033-1.085-1.699-0.751l-1.374-0.672-3.294-7.402 0.285-1.685 1.442 0.915 3.461 7.777 6.059-11.392 1.504-0.812L57.289 36.946 57.289 36.946zM55.508 37.327l-4.92 9.253c-0.061 0.112-0.018 0.251 0.094 0.31l0.377 0.201c0.111 0.06 0.25 0.017 0.312-0.096l4.92-9.252c0.06-0.112 0.019-0.251-0.097-0.311l-0.377-0.2C55.705 37.174 55.566 37.216 55.508 37.327L55.508 37.327zM45.302 41.311l2.966 6.661c0.053 0.117 0.187 0.169 0.303 0.118l0.39-0.174c0.116-0.052 0.168-0.188 0.118-0.303l-2.967-6.663c-0.052-0.114-0.188-0.168-0.303-0.115l-0.389 0.174C45.303 41.061 45.251 41.195 45.302 41.311L45.302 41.311zM50.809 61.495V61.23h-1.24v0.594h0.287v-0.329h0.635l-0.699 1.815h0.322L50.809 61.495 50.809 61.495zM49.416 63.311v-0.265h-0.849l0.652-0.798c0.129-0.158 0.197-0.268 0.197-0.451 0-0.359-0.246-0.584-0.602-0.584-0.354 0-0.605 0.234-0.605 0.588h0.298c0-0.234 0.148-0.322 0.308-0.322 0.192 0 0.303 0.131 0.303 0.315 0 0.106-0.031 0.183-0.111 0.278l-0.8 0.974v0.265H49.416L49.416 63.311zM48.026 61.188c0-0.141 0.114-0.256 0.256-0.256h2.427c0.141 0 0.256 0.115 0.256 0.256v2.322c0 0.143-0.115 0.256-0.256 0.256h-2.427c-0.142 0-0.256-0.113-0.256-0.256V61.188L48.026 61.188zM38.994 49.623c0 0.467 0.378 0.844 0.845 0.844 0.466 0 0.843-0.377 0.843-0.844 0-0.374-0.242-0.69-0.577-0.802l-0.137-4.261h-0.129H39.71l-0.138 4.261C39.237 48.933 38.994 49.249 38.994 49.623L38.994 49.623zM34.473 46.011c0-1.011 0.819-1.83 1.83-1.83h7.132c1.012 0 1.831 0.819 1.831 1.83v0.656l-1.698-0.832-0.844 1.987 2.542 0.945v4.336c0 1.013-0.819 1.832-1.831 1.832h-7.132c-1.011 0-1.83-0.819-1.83-1.832V46.011L34.473 46.011zM59.951 49.623c0-0.374-0.244-0.69-0.58-0.802l-0.137-4.261h-0.127-0.131l-0.138 4.261c-0.336 0.111-0.575 0.428-0.575 0.802 0 0.467 0.377 0.844 0.844 0.844C59.572 50.467 59.951 50.09 59.951 49.623L59.951 49.623zM53.678 50.578v-4.567c0-1.011 0.82-1.83 1.832-1.83h7.129c1.012 0 1.832 0.819 1.832 1.83v7.093c0 0.772-0.477 1.434-1.152 1.703L53.678 50.578 53.678 50.578zM51.16 51.041l0.535 1.204-1.728 0.771-0.559-1.254-0.784 1.475-0.833-0.448-0.838-0.44 1.311-2.463 0.164 0.06c0.225 0.724 1.068 1.062 1.732 0.69L51.16 51.041 51.16 51.041zM60.65 54.936H55.51c-1.012 0-1.832-0.818-1.832-1.832v-1.027L60.65 54.936 60.65 54.936zM49.285 50.27c-0.275-0.118-0.445-0.382-0.452-0.664l-5.501-2.045 0.468-1.102 5.272 2.583c0.209-0.19 0.516-0.254 0.793-0.137 0.285 0.122 0.457 0.404 0.451 0.698l14.479 6.351-0.033 0.079-0.035 0.08-14.628-6.002C49.891 50.318 49.572 50.392 49.285 50.27L49.285 50.27zM38.976 66.715l1.222-2.199c0.061-0.109 0.2-0.149 0.311-0.09l0.86 0.479c0.112 0.062 0.151 0.199 0.089 0.311l-0.832 1.501L38.976 66.715 38.976 66.715zM32.177 50.349v-1.44h0.874c0.126 0 0.229 0.102 0.229 0.229v0.983c0 0.126-0.103 0.229-0.229 0.229L32.177 50.349 32.177 50.349zM66.742 50.349h-0.873c-0.127 0-0.229-0.103-0.229-0.229v-0.983c0-0.127 0.102-0.229 0.229-0.229h0.873V50.349L66.742 50.349zM66.742 40.317l-1.85 1.11c-0.107 0.065-0.248 0.029-0.312-0.079l-0.508-0.843c-0.066-0.108-0.031-0.25 0.078-0.314l2.592-1.558V40.317L66.742 40.317zM48.739 32.599h0.734 0.709v0.921c0 0.127-0.104 0.229-0.23 0.229h-0.984c-0.126 0-0.229-0.102-0.229-0.229V32.599L48.739 32.599zM38.978 32.599h1.649l0.832 1.502c0.062 0.11 0.022 0.25-0.09 0.311l-0.86 0.479c-0.109 0.061-0.25 0.021-0.311-0.09L38.978 32.599 38.978 32.599zM32.177 40.317v-1.684l2.593 1.558c0.108 0.064 0.143 0.206 0.077 0.314l-0.507 0.843c-0.064 0.108-0.206 0.145-0.313 0.079L32.177 40.317 32.177 40.317zM59.941 32.599L58.721 34.8c-0.061 0.11-0.199 0.15-0.311 0.09l-0.861-0.479c-0.111-0.061-0.15-0.2-0.088-0.311l0.832-1.502L59.941 32.599 59.941 32.599zM32.175 58.999l1.851-1.11c0.107-0.066 0.249-0.029 0.313 0.078l0.507 0.844c0.065 0.106 0.031 0.25-0.077 0.312l-2.594 1.559V58.999L32.175 58.999zM50.18 66.715h-0.732-0.71v-0.921c0-0.125 0.103-0.228 0.229-0.228h0.983c0.127 0 0.23 0.103 0.23 0.228V66.715L50.18 66.715zM59.939 66.715h-1.648l-0.832-1.501c-0.061-0.11-0.021-0.249 0.088-0.312l0.863-0.478c0.109-0.061 0.248-0.021 0.311 0.089L59.939 66.715 59.939 66.715zM66.742 58.999v1.683l-2.594-1.559c-0.109-0.062-0.144-0.206-0.076-0.312l0.506-0.844c0.064-0.107 0.205-0.146 0.314-0.078L66.742 58.999 66.742 58.999zM48.482 98.823c-5.816 0-9.914-3.888-10.531-10.531l-0.96-14.717H61.93l-0.959 14.717c-0.617 6.644-4.715 10.531-10.531 10.531H48.482L48.482 98.823z" fill="#ffffff" data-fill-palette-color="accent"></path></g></svg></g></svg></g></svg></g><defs></defs></svg><rect width="395.52" height="209.9486615993541" fill="none" stroke="none" visibility="hidden"></rect></g></svg></g></svg>